<?xml version="1.0" standalone="no"?>
<svg xmlns:xlink="http://www.w3.org/1999/xlink" id="wave" style="transform:rotate(180deg); transition: 0.3s" viewBox="0 0 1440 490" version="1.1" xmlns="http://www.w3.org/2000/svg"><defs><linearGradient id="sw-gradient-0" x1="0" x2="0" y1="1" y2="0"><stop stop-color="rgba(0, 128, 96, 1)" offset="0%"/><stop stop-color="rgba(0, 128, 96, 1)" offset="100%"/></linearGradient></defs><path style="transform:translate(0, 0px); opacity:1" fill="url(#sw-gradient-0)" d="M0,392L48,367.5C96,343,192,294,288,228.7C384,163,480,82,576,65.3C672,49,768,98,864,155.2C960,212,1056,278,1152,261.3C1248,245,1344,147,1440,114.3C1536,82,1632,114,1728,114.3C1824,114,1920,82,2016,114.3C2112,147,2208,245,2304,302.2C2400,359,2496,376,2592,351.2C2688,327,2784,261,2880,253.2C2976,245,3072,294,3168,269.5C3264,245,3360,147,3456,130.7C3552,114,3648,180,3744,236.8C3840,294,3936,343,4032,310.3C4128,278,4224,163,4320,114.3C4416,65,4512,82,4608,106.2C4704,131,4800,163,4896,179.7C4992,196,5088,196,5184,179.7C5280,163,5376,131,5472,130.7C5568,131,5664,163,5760,212.3C5856,261,5952,327,6048,310.3C6144,294,6240,196,6336,179.7C6432,163,6528,229,6624,277.7C6720,327,6816,359,6864,375.7L6912,392L6912,490L6864,490C6816,490,6720,490,6624,490C6528,490,6432,490,6336,490C6240,490,6144,490,6048,490C5952,490,5856,490,5760,490C5664,490,5568,490,5472,490C5376,490,5280,490,5184,490C5088,490,4992,490,4896,490C4800,490,4704,490,4608,490C4512,490,4416,490,4320,490C4224,490,4128,490,4032,490C3936,490,3840,490,3744,490C3648,490,3552,490,3456,490C3360,490,3264,490,3168,490C3072,490,2976,490,2880,490C2784,490,2688,490,2592,490C2496,490,2400,490,2304,490C2208,490,2112,490,2016,490C1920,490,1824,490,1728,490C1632,490,1536,490,1440,490C1344,490,1248,490,1152,490C1056,490,960,490,864,490C768,490,672,490,576,490C480,490,384,490,288,490C192,490,96,490,48,490L0,490Z"/></svg>